<svg xmlns="http://www.w3.org/2000/svg" xmlns:xlink="http://www.w3.org/1999/xlink" id="Layer_1" width="319" height="377" x="0" y="0" enable-background="new 35 -63 319 377" version="1.1" viewBox="35 -63 319 377" xml:space="preserve"><rect width="319" height="45" x="35" y="-39" fill="#89479B"/><rect width="52.9" height="22" x="35" y="-27.5" fill="#E88024"/><rect width="26.9" height="22" x="98.1" y="-27.5" fill="#E88024"/><rect width="96.2" height="22" x="135.8" y="-27.5" fill="#E88024"/><rect width="319" height="45" x="35" y="35" fill="#89479B"/><rect width="52.9" height="22" x="157" y="46.5" fill="#E88024"/><rect width="26.9" height="22" x="220.1" y="46.5" fill="#E88024"/><rect width="96.2" height="22" x="257.8" y="46.5" fill="#E88024"/><text fill="#89479B" font-family="'GothamRounded-Book'" font-size="16" transform="matrix(1 0 0 1 43 -39)">flex-start</text><text fill="#89479B" font-family="'GothamRounded-Book'" font-size="16" transform="matrix(1 0 0 1 43 35)">flex-end</text><rect width="319" height="45" x="35" y="110" fill="#89479B"/><rect width="52.9" height="22" x="94.4" y="121.5" fill="#E88024"/><rect width="26.9" height="22" x="157.5" y="121.5" fill="#E88024"/><rect width="96.2" height="22" x="195.2" y="121.5" fill="#E88024"/><text fill="#89479B" font-family="'GothamRounded-Book'" font-size="16" transform="matrix(1 0 0 1 43 110)">center</text><rect width="319" height="45" x="35.7" y="185" fill="#89479B"/><rect width="52.9" height="22" x="35" y="196.5" fill="#E88024"/><rect width="26.9" height="22" x="162.2" y="196.5" fill="#E88024"/><rect width="96.2" height="22" x="257.8" y="196.5" fill="#E88024"/><text fill="#89479B" font-family="'GothamRounded-Book'" font-size="16" transform="matrix(1 0 0 1 43.6836 185)">space-between</text><rect width="319" height="45" x="36" y="261" fill="#89479B"/><rect width="52.9" height="22" x="58" y="272.5" fill="#E88024"/><rect width="26.9" height="22" x="158.5" y="272.5" fill="#E88024"/><rect width="96.2" height="22" x="236.1" y="272.5" fill="#E88024"/><text fill="#89479B" font-family="'GothamRounded-Book'" font-size="16" transform="matrix(1 0 0 1 44.0254 261)">space-around</text></svg>